<svg width="1263" height="1440" viewBox="0 0 1263 1440" fill="none" xmlns="http://www.w3.org/2000/svg">
<rect width="1263" height="1440" rx="300" fill="black"/>
<path d="M763.948 454.052C810.082 500.186 836 562.757 836 628C836 693.243 810.082 755.814 763.948 801.948C717.814 848.082 655.243 874 590 874C524.757 874 462.186 848.082 416.052 801.948C369.918 755.814 344 693.243 344 628C344 562.757 369.918 500.186 416.052 454.052C462.186 407.918 524.757 382 590 382C655.243 382 717.814 407.918 763.948 454.052ZM763.948 454.052L979.135 242.454L1082 136M1082 136H836M1082 136C1082 232.069 1082 285.931 1082 382M590 935.5V1304.5M405.5 1120H774.5" stroke="#FF6B00" stroke-width="123" stroke-linecap="round" stroke-linejoin="round"/>
<g clip-path="url(#clip0_226_20)">
<rect width="1263" height="614" rx="307" fill="black"/>
<path d="M763.948 452.052C810.082 498.186 836 560.757 836 626C836 691.243 810.082 753.814 763.948 799.948C717.814 846.082 655.243 872 590 872C524.757 872 462.186 846.082 416.052 799.948C369.918 753.814 344 691.243 344 626C344 560.757 369.918 498.186 416.052 452.052C462.186 405.918 524.757 380 590 380C655.243 380 717.814 405.918 763.948 452.052ZM763.948 452.052L979.135 240.454L1082 134M1082 134H836M1082 134C1082 230.069 1082 283.931 1082 380M590 933.5V1302.5M405.5 1118H774.5" stroke="#FF1BA4" stroke-width="123" stroke-linecap="round" stroke-linejoin="round"/>
</g>
<defs>
<clipPath id="clip0_226_20">
<rect width="1263" height="614" rx="307" fill="white"/>
</clipPath>
</defs>
</svg>
