<?xml version="1.0" standalone="no"?>
<!DOCTYPE svg PUBLIC "-//W3C//DTD SVG 20010904//EN"
 "http://www.w3.org/TR/2001/REC-SVG-20010904/DTD/svg10.dtd">
<svg version="1.0" xmlns="http://www.w3.org/2000/svg"
 width="1188.000000pt" height="1280.000000pt" viewBox="0 0 1188.000000 1280.000000"
 preserveAspectRatio="xMidYMid meet">
<metadata>
Created by potrace 1.15, written by Peter Selinger 2001-2017
</metadata>
<g transform="translate(0.000000,1280.000000) scale(0.100000,-0.100000)"
fill="#DB00DE" stroke="none">
<path d="M4386 12783 c-16 -53 -27 -174 -36 -408 -11 -263 -22 -393 -42 -475
-16 -68 -57 -149 -83 -166 -45 -30 -147 -328 -235 -689 -117 -475 -168 -897
-157 -1275 11 -353 63 -584 182 -807 45 -85 45 -87 55 -222 5 -75 10 -143 10
-151 0 -10 -16 -20 -45 -28 -84 -22 -92 -78 -25 -170 l28 -39 -71 -64 c-194
-173 -1048 -1034 -1487 -1499 -1107 -1174 -1838 -2062 -2124 -2579 -41 -74
-44 -86 -51 -178 -3 -54 -2 -146 4 -206 l11 -107 -91 -293 c-124 -402 -180
-628 -214 -860 l-16 -108 81 -147 c187 -335 358 -524 548 -602 37 -15 66 -32
66 -36 -1 -5 -7 -112 -14 -239 l-12 -229 29 -24 c250 -206 544 -392 748 -472
426 -168 717 -99 908 217 58 96 142 278 198 430 49 132 162 514 189 636 7 31
16 57 20 57 21 0 192 -300 435 -765 304 -581 430 -771 669 -1011 137 -137 211
-192 311 -233 177 -72 385 -43 489 69 53 57 79 104 107 201 27 93 37 315 20
442 -15 108 -71 273 -156 458 -56 121 -95 228 -95 262 0 16 27 -11 255 -258
122 -132 252 -268 289 -303 79 -73 441 -346 621 -467 333 -225 537 -266 772
-154 86 41 168 105 313 245 132 127 172 154 267 179 91 24 177 18 392 -25 292
-59 463 -54 604 16 28 14 151 92 272 173 359 238 444 338 477 559 8 58 8 105
-1 197 -9 88 -9 138 -2 186 49 305 241 635 417 716 46 21 66 24 106 20 122
-15 207 -84 347 -283 104 -147 117 -163 194 -243 217 -223 696 -400 1082 -401
180 0 362 43 490 117 l63 36 -55 83 -56 84 41 44 c54 58 76 106 91 194 18 101
31 114 126 123 92 9 174 45 207 92 18 24 23 45 23 88 -1 63 -2 65 -150 267
-42 56 -216 304 -387 550 -357 513 -488 699 -636 900 l-104 143 39 57 c22 31
50 75 62 98 22 40 23 42 6 75 -82 160 -485 511 -1030 900 -159 112 -204 151
-304 258 -415 442 -1212 1364 -1747 2021 -136 167 -394 590 -394 646 0 7 16
36 36 65 20 30 41 66 46 82 11 31 2 49 -64 128 -43 51 -47 70 -19 90 31 22
210 468 276 686 69 226 95 388 95 585 0 450 -183 935 -593 1572 -50 78 -98
161 -108 186 -22 59 -61 289 -99 585 -38 296 -38 298 -57 291 -8 -3 -86 -6
-174 -7 l-159 0 0 -24 c0 -30 -20 -45 -220 -167 -167 -102 -601 -355 -625
-364 -25 -10 -569 315 -757 452 -30 22 -45 40 -43 52 17 83 18 79 -33 96 -38
12 -214 58 -319 83 -15 3 -23 -1 -27 -14z m1798 -560 c-26 -38 -92 -128 -146
-201 l-99 -133 -32 19 c-18 11 -63 36 -100 57 l-68 37 143 83 c79 45 188 110
243 143 55 34 102 62 103 62 2 0 -18 -30 -44 -67z m-1394 -63 c35 -52 101
-148 148 -214 66 -92 82 -120 71 -127 -21 -13 -218 -99 -228 -99 -4 0 -29 18
-55 41 l-46 41 0 86 c0 102 31 386 40 375 4 -5 36 -51 70 -103z m291 29 c41
-26 126 -76 188 -112 l112 -65 -84 -46 c-46 -25 -87 -46 -90 -46 -5 0 -221
294 -241 328 -10 18 9 7 115 -59z m1405 -156 c19 -114 34 -223 34 -241 0 -25
-12 -49 -46 -93 -26 -32 -49 -59 -52 -59 -2 0 -72 35 -154 77 -87 45 -147 82
-144 88 2 7 60 88 128 181 68 93 139 190 158 216 18 27 35 46 38 43 2 -2 20
-98 38 -212z m-784 -205 c70 -39 128 -75 128 -79 0 -8 -226 -306 -239 -314
-12 -7 -274 326 -264 336 12 12 227 129 237 129 5 0 67 -32 138 -72z m-500
-240 c34 -46 104 -137 156 -202 53 -68 91 -125 88 -133 -8 -20 -90 -122 -97
-120 -3 1 -100 101 -216 222 l-210 219 96 47 c53 26 101 48 108 48 7 1 40 -36
75 -81z m961 -8 l154 -79 -161 -199 c-88 -109 -177 -218 -197 -241 l-35 -43
-100 117 c-54 64 -102 122 -106 128 -4 7 53 89 134 192 77 99 142 186 145 193
3 6 7 12 8 12 2 0 73 -36 158 -80z m-543 -514 c19 -24 66 -78 105 -121 l69
-77 -41 -39 c-23 -21 -47 -39 -53 -39 -7 0 -59 46 -116 103 l-105 102 48 57
c26 32 50 58 53 57 3 0 21 -19 40 -43z"/>
</g>
</svg>
