<svg width="1263" height="1440" viewBox="0 0 1263 1440" fill="none" xmlns="http://www.w3.org/2000/svg">
<g clip-path="url(#clip0_214_36)">
<rect width="1263" height="1440" rx="300" fill="white"/>
<path d="M495.564 97.1479C494.136 102.088 493.155 113.368 492.351 135.181C491.369 159.697 490.388 171.816 488.603 179.46C487.174 185.798 483.515 193.349 481.194 194.934C477.178 197.73 468.074 225.51 460.219 259.161C449.776 303.44 445.224 342.778 446.206 378.015C447.188 410.921 451.829 432.454 462.451 453.242C466.467 461.165 466.467 461.352 467.36 473.936C467.806 480.928 468.252 487.267 468.252 488.012C468.252 488.945 466.824 489.877 464.236 490.622C456.738 492.673 456.024 497.894 462.004 506.47L464.504 510.105L458.166 516.071C440.851 532.198 364.626 612.459 325.443 655.805C226.637 765.244 161.391 848.022 135.864 896.215C132.205 903.114 131.937 904.232 131.312 912.808C131.044 917.842 131.134 926.418 131.669 932.011L132.651 941.986L124.529 969.299C113.461 1006.77 108.463 1027.84 105.428 1049.47L104 1059.53L111.23 1073.24C127.921 1104.47 143.183 1122.08 160.142 1129.35C163.444 1130.75 166.033 1132.34 166.033 1132.71C165.943 1133.18 165.408 1143.15 164.783 1154.99L163.712 1176.34L166.3 1178.57C188.614 1197.78 214.856 1215.12 233.064 1222.57C271.087 1238.23 297.06 1231.8 314.108 1202.34C319.285 1193.4 326.782 1176.43 331.78 1162.26C336.154 1149.96 346.24 1114.35 348.65 1102.97C349.274 1100.08 350.078 1097.66 350.435 1097.66C352.309 1097.66 367.572 1125.63 389.261 1168.97C416.395 1223.13 427.641 1240.84 448.973 1263.22C461.201 1275.99 467.806 1281.11 476.732 1284.94C492.53 1291.65 511.095 1288.94 520.378 1278.5C525.108 1273.19 527.429 1268.81 529.928 1259.77C532.338 1251.1 533.23 1230.4 531.713 1218.56C530.374 1208.5 525.376 1193.12 517.789 1175.87C512.791 1164.59 509.31 1154.62 509.31 1151.45C509.31 1149.96 511.72 1152.47 532.07 1175.5C542.959 1187.8 554.562 1200.48 557.865 1203.74C564.916 1210.55 597.227 1236 613.293 1247.28C643.015 1268.25 661.223 1272.07 682.198 1261.63C689.874 1257.81 697.193 1251.84 710.135 1238.79C721.917 1226.95 725.487 1224.44 733.966 1222.11C742.089 1219.87 749.765 1220.43 768.955 1224.44C795.017 1229.94 810.28 1229.47 822.865 1222.95C825.364 1221.64 836.343 1214.37 847.142 1206.82C879.185 1184.63 886.772 1175.31 889.717 1154.71C890.431 1149.3 890.431 1144.92 889.628 1136.35C888.825 1128.14 888.825 1123.48 889.45 1119.01C893.823 1090.58 910.96 1059.81 926.669 1052.26C930.775 1050.31 932.56 1050.03 936.13 1050.4C947.02 1051.8 954.606 1058.23 967.102 1076.78C976.385 1090.48 977.545 1091.97 984.418 1099.43C1003.79 1120.22 1046.54 1136.72 1080.99 1136.81C1097.06 1136.81 1113.3 1132.8 1124.73 1125.91L1130.35 1122.55L1125.44 1114.81L1120.44 1106.98L1124.1 1102.88C1128.92 1097.47 1130.89 1093 1132.22 1084.8C1133.83 1075.38 1134.99 1074.17 1143.47 1073.33C1151.68 1072.49 1159 1069.14 1161.95 1064.75C1163.55 1062.52 1164 1060.56 1164 1056.55C1163.91 1050.68 1163.82 1050.49 1150.61 1031.66C1146.86 1026.44 1131.33 1003.32 1116.07 980.392C1084.21 932.571 1072.51 915.232 1059.3 896.495L1050.02 883.165L1053.5 877.851C1055.47 874.962 1057.96 870.86 1059.04 868.716C1061 864.987 1061.09 864.801 1059.57 861.725C1052.25 846.81 1016.28 814.09 967.638 777.828C953.446 767.388 949.429 763.752 940.504 753.778C903.463 712.575 832.326 626.628 784.574 565.384C772.435 549.816 749.408 510.385 749.408 505.165C749.408 504.512 750.836 501.809 752.621 499.105C754.406 496.309 756.28 492.953 756.726 491.461C757.708 488.572 756.905 486.894 751.014 479.529C747.176 474.775 746.819 473.004 749.318 471.14C752.085 469.089 768.062 427.514 773.953 407.192C780.111 386.125 782.432 371.023 782.432 352.659C782.432 310.711 766.098 265.5 729.504 206.12C725.041 198.849 720.756 191.112 719.864 188.781C717.9 183.282 714.419 161.841 711.028 134.249C707.636 106.656 707.636 106.47 705.94 107.122C705.226 107.402 698.264 107.682 690.41 107.775H676.218V110.012C676.218 112.809 674.433 114.207 656.582 125.579C641.676 135.088 602.939 158.672 600.797 159.511C598.565 160.443 550.01 130.147 533.23 117.376C530.553 115.325 529.214 113.648 529.392 112.529C530.91 104.792 530.999 105.165 526.447 103.58C523.055 102.461 507.346 98.1733 497.974 95.8428C496.636 95.5631 495.922 95.936 495.564 97.1479ZM656.046 149.35C653.725 152.892 647.835 161.282 643.015 168.087L634.178 180.485L631.322 178.714C629.716 177.689 625.699 175.358 622.397 173.4L616.327 169.951L629.091 162.214C636.142 158.019 645.871 151.96 650.78 148.884C655.689 145.715 659.884 143.104 659.973 143.104C660.152 143.104 658.367 145.901 656.046 149.35ZM531.624 155.223C534.748 160.07 540.639 169.019 544.834 175.172C550.724 183.748 552.153 186.358 551.171 187.01C549.296 188.222 531.713 196.239 530.82 196.239C530.463 196.239 528.232 194.561 525.911 192.417L521.806 188.595V180.578C521.806 171.07 524.573 144.596 525.376 145.621C525.733 146.087 528.589 150.376 531.624 155.223ZM557.597 152.52C561.257 154.943 568.843 159.604 574.377 162.96L584.374 169.019L576.876 173.307C572.771 175.638 569.111 177.595 568.843 177.595C568.397 177.595 549.118 150.189 547.333 147.02C546.44 145.342 548.136 146.367 557.597 152.52ZM683.001 167.062C684.697 177.689 686.036 187.849 686.036 189.527C686.036 191.858 684.965 194.095 681.93 198.197C679.61 201.18 677.557 203.696 677.289 203.696C677.11 203.696 670.863 200.434 663.544 196.519C655.778 192.324 650.423 188.875 650.691 188.315C650.869 187.663 656.046 180.112 662.116 171.443C668.185 162.774 674.522 153.731 676.218 151.308C677.824 148.791 679.342 147.02 679.61 147.299C679.788 147.486 681.395 156.435 683.001 167.062ZM613.025 186.171C619.273 189.807 624.45 193.163 624.45 193.536C624.45 194.281 604.278 222.06 603.118 222.806C602.046 223.459 578.661 192.417 579.554 191.485C580.625 190.366 599.815 179.46 600.708 179.46C601.154 179.46 606.688 182.443 613.025 186.171ZM568.397 208.544C571.432 212.832 577.68 221.315 582.321 227.374C587.052 233.713 590.443 239.026 590.175 239.772C589.461 241.636 582.142 251.145 581.518 250.958C581.25 250.865 572.592 241.543 562.238 230.264L543.495 209.849L552.063 205.468C556.794 203.044 561.078 200.993 561.703 200.993C562.328 200.9 565.273 204.349 568.397 208.544ZM654.172 209.29L667.917 216.654L653.547 235.204C645.692 245.365 637.749 255.526 635.964 257.67L632.84 261.678L623.914 250.772C619.094 244.806 614.81 239.399 614.453 238.84C614.096 238.187 619.184 230.543 626.413 220.942C633.286 211.713 639.088 203.603 639.355 202.951C639.623 202.391 639.98 201.832 640.069 201.832C640.248 201.832 646.585 205.188 654.172 209.29ZM605.706 257.204C607.402 259.441 611.597 264.475 615.078 268.483L621.236 275.661L617.577 279.296C615.524 281.254 613.382 282.932 612.846 282.932C612.222 282.932 607.58 278.644 602.493 273.331L593.121 263.822L597.405 258.509C599.726 255.526 601.868 253.102 602.136 253.195C602.403 253.195 604.01 254.967 605.706 257.204Z" fill="#DB00DE"/>
</g>
<defs>
<clipPath id="clip0_214_36">
<rect width="1263" height="1440" rx="300" fill="white"/>
</clipPath>
</defs>
</svg>
